Coordinates
version=1
nRows=27
nColumns=38
inDegrees=no

Units are S.I. units (second, meters, Newtons, ...)
If the header above contains a line with 'inDegrees', this indicates whether rotational values are in degrees (yes) or radians (no).

endheader
time	pelvis_tilt	pelvis_list	pelvis_rotation	pelvis_tx	pelvis_ty	pelvis_tz	hip_flexion_r	hip_adduction_r	hip_rotation_r	knee_angle_r	ankle_angle_r	subtalar_angle_r	mtp_angle_r	hip_flexion_l	hip_adduction_l	hip_rotation_l	knee_angle_l	ankle_angle_l	subtalar_angle_l	mtp_angle_l	lumbar_extension	lumbar_bending	lumbar_rotation	arm_flex_r	arm_add_r	arm_rot_r	elbow_flex_r	pro_sup_r	wrist_flex_r	wrist_dev_r	arm_flex_l	arm_add_l	arm_rot_l	elbow_flex_l	pro_sup_l	wrist_flex_l	wrist_dev_l
20.74	2.95221	1.30453	-1.27395	0.69279	-0.150811	0.953033	-0.315777	0.0507976	-0.0655743	0.266748	-0.197223	0	0	-0.290376	-0.121156	-0.0859456	0.342904	-0.127378	0	0	-0.281818	0.12213	-0.120184	0.712994	-0.447849	0.922388	1.82985	1.5708	0	0	0.547027	-0.366069	0.650102	1.78515	1.42497	0	0
20.75	2.95274	1.30339	-1.27518	0.693	-0.150555	0.953048	-0.317591	0.0510841	-0.0656481	0.265773	-0.197373	0	0	-0.29222	-0.121394	-0.0863603	0.342752	-0.127316	0	0	-0.280707	0.12197	-0.117472	0.711229	-0.449329	0.926196	1.83165	1.5708	0	0	0.550013	-0.367815	0.666667	1.78304	1.42114	0	0
20.76	2.95324	1.30234	-1.27624	0.693238	-0.150272	0.953078	-0.319449	0.0514418	-0.0662853	0.264575	-0.197733	0	0	-0.294132	-0.121687	-0.0865828	0.342103	-0.127339	0	0	-0.279351	0.121755	-0.114775	0.70899	-0.450756	0.929508	1.83195	1.5708	0	0	0.552464	-0.370299	0.682971	1.78165	1.42027	0	0
20.77	2.95341	1.30116	-1.27753	0.693453	-0.150064	0.953101	-0.321128	0.0514278	-0.0661524	0.263849	-0.198218	0	0	-0.296335	-0.121845	-0.0873571	0.341112	-0.127213	0	0	-0.278579	0.121571	-0.111754	0.707327	-0.451739	0.932556	1.83061	1.5708	0	0	0.554668	-0.373008	0.698121	1.78062	1.41925	0	0
20.78	2.95402	1.29978	-1.27953	0.69363	-0.149926	0.953116	-0.322909	0.0508024	-0.0655321	0.2633	-0.198746	0	0	-0.298799	-0.121714	-0.0882392	0.339982	-0.12703	0	0	-0.278705	0.121083	-0.108904	0.706031	-0.453459	0.936294	1.83013	1.5708	0	0	0.556221	-0.376012	0.711744	1.78046	1.41634	0	0
20.79	2.95445	1.29833	-1.2812	0.69381	-0.149765	0.953125	-0.324866	0.0506094	-0.0653842	0.262575	-0.19919	0	0	-0.301209	-0.121735	-0.0889464	0.33938	-0.127051	0	0	-0.279258	0.120352	-0.106704	0.704028	-0.457365	0.940148	1.83294	1.57073	0	0	0.556371	-0.379057	0.72313	1.78159	1.41074	0	0
20.8	2.95502	1.29677	-1.28282	0.694013	-0.149602	0.953157	-0.327043	0.0507619	-0.0654026	0.261588	-0.199562	0	0	-0.303684	-0.121871	-0.0895661	0.338832	-0.126962	0	0	-0.280164	0.119461	-0.104699	0.701558	-0.460978	0.941811	1.83604	1.57065	0	0	0.555174	-0.381312	0.731844	1.78335	1.40382	0	0
20.81	2.95563	1.29481	-1.28439	0.694215	-0.149464	0.953234	-0.329712	0.0510771	-0.0655856	0.260431	-0.200088	0	0	-0.306689	-0.122124	-0.0900992	0.337918	-0.126881	0	0	-0.281792	0.118532	-0.102744	0.698969	-0.463349	0.941221	1.83838	1.5706	0	0	0.553329	-0.382439	0.738048	1.78487	1.39787	0	0
20.82	2.95585	1.29266	-1.28548	0.694399	-0.14934	0.95332	-0.332583	0.0514636	-0.0656603	0.259341	-0.200575	0	0	-0.309784	-0.122572	-0.0907753	0.337093	-0.126842	0	0	-0.283953	0.117635	-0.101061	0.696958	-0.465786	0.940665	1.84172	1.57057	0	0	0.550541	-0.382949	0.741977	1.78652	1.39435	0	0
20.83	2.95643	1.29047	-1.28706	0.694575	-0.149233	0.953388	-0.335444	0.0517387	-0.0656039	0.258165	-0.201076	0	0	-0.312976	-0.122907	-0.0916137	0.336175	-0.12684	0	0	-0.286407	0.116573	-0.0991292	0.695031	-0.468756	0.941623	1.84693	1.57044	0	0	0.547405	-0.382902	0.745009	1.78814	1.39038	0	0
20.84	2.95755	1.28863	-1.28919	0.694776	-0.149132	0.953417	-0.33779	0.0518126	-0.0655946	0.257265	-0.201537	0	0	-0.315835	-0.122996	-0.0925742	0.335292	-0.12688	0	0	-0.288405	0.11535	-0.0969564	0.692989	-0.472126	0.94391	1.85306	1.57014	0	0	0.544515	-0.382478	0.748014	1.78885	1.3879	0	0
20.85	2.95862	1.28737	-1.2912	0.694986	-0.149025	0.953406	-0.339296	0.0517761	-0.0655399	0.256868	-0.201735	0	0	-0.317893	-0.122949	-0.0933297	0.334943	-0.126863	0	0	-0.289596	0.114139	-0.0948945	0.690958	-0.474413	0.943598	1.85477	1.56991	0	0	0.541773	-0.382413	0.750829	1.78925	1.39005	0	0
20.86	2.95969	1.28589	-1.29298	0.695161	-0.148922	0.95344	-0.341147	0.0518032	-0.0655913	0.256486	-0.20184	0	0	-0.320108	-0.12299	-0.0938935	0.334813	-0.126854	0	0	-0.290971	0.113053	-0.0928124	0.688725	-0.476054	0.940425	1.85285	1.56977	0	0	0.539509	-0.382549	0.753826	1.78952	1.39843	0	0
20.87	2.96074	1.28416	-1.29444	0.695314	-0.148832	0.953512	-0.343347	0.0521505	-0.0659399	0.256008	-0.201928	0	0	-0.322618	-0.12324	-0.0944333	0.334154	-0.126903	0	0	-0.292571	0.112177	-0.0908915	0.686295	-0.477849	0.940261	1.85339	1.5696	0	0	0.537801	-0.38294	0.757105	1.78989	1.41201	0	0
20.88	2.96219	1.28262	-1.2962	0.695454	-0.148763	0.953557	-0.345201	0.052565	-0.0662686	0.255695	-0.201967	0	0	-0.325037	-0.123341	-0.0949865	0.332911	-0.126974	0	0	-0.293958	0.111249	-0.0892309	0.684021	-0.480168	0.940363	1.8542	1.5694	0	0	0.536586	-0.383443	0.760531	1.79051	1.42818	0	0
20.89	2.96387	1.28126	-1.29801	0.695563	-0.148706	0.953585	-0.346968	0.0522848	-0.0663759	0.255328	-0.202124	0	0	-0.327178	-0.123313	-0.0953842	0.331807	-0.127036	0	0	-0.295247	0.110297	-0.0879016	0.681699	-0.482559	0.939382	1.85435	1.56921	0	0	0.535619	-0.383607	0.763775	1.79093	1.44637	0	0
20.9	2.96534	1.2798	-1.2993	0.695642	-0.148664	0.953649	-0.348925	0.0522096	-0.0666449	0.254889	-0.202363	0	0	-0.329307	-0.123414	-0.0954918	0.33076	-0.127163	0	0	-0.296878	0.109519	-0.0869396	0.679704	-0.484554	0.940113	1.85568	1.56895	0	0	0.534684	-0.383885	0.767122	1.79176	1.46589	0	0
20.91	2.96692	1.27834	-1.30048	0.695711	-0.148634	0.953715	-0.350833	0.0523132	-0.0670559	0.254389	-0.202609	0	0	-0.331204	-0.123559	-0.0954886	0.330276	-0.127505	0	0	-0.298593	0.108759	-0.0864084	0.678084	-0.485918	0.940628	1.85718	1.56863	0	0	0.534129	-0.384587	0.77138	1.79269	1.48737	0	0
20.92	2.96876	1.27694	-1.30173	0.695763	-0.148606	0.953779	-0.352792	0.0524356	-0.0674392	0.253645	-0.202955	0	0	-0.332873	-0.123741	-0.0957557	0.330023	-0.127914	0	0	-0.300247	0.10803	-0.085895	0.67622	-0.487788	0.940517	1.85938	1.56815	0	0	0.534378	-0.38528	0.776628	1.79377	1.51479	0	0
20.93	2.97075	1.276	-1.30297	0.695817	-0.148573	0.953782	-0.354254	0.052581	-0.0679704	0.253296	-0.202964	0	0	-0.333911	-0.123869	-0.0959362	0.330079	-0.127984	0	0	-0.301363	0.107097	-0.0858028	0.674309	-0.489624	0.940458	1.86044	1.56775	0	0	0.533438	-0.385241	0.780632	1.79473	1.53622	0	0
20.94	2.97256	1.27536	-1.304	0.695872	-0.148523	0.95378	-0.355451	0.0528393	-0.068561	0.25275	-0.202859	0	0	-0.334835	-0.123915	-0.095861	0.32962	-0.128111	0	0	-0.302275	0.106214	-0.085594	0.672028	-0.4914	0.940436	1.86108	1.56716	0	0	0.531852	-0.38458	0.782771	1.79555	1.56408	0	0
20.95	2.9746	1.27459	-1.30517	0.695937	-0.148471	0.953791	-0.356782	0.0532503	-0.0689608	0.252277	-0.202648	0	0	-0.335809	-0.124026	-0.0959239	0.32936	-0.128265	0	0	-0.303216	0.105298	-0.0857778	0.670107	-0.492822	0.941475	1.86127	1.56658	0	0	0.530448	-0.385265	0.785583	1.79683	1.5708	0	0
20.96	2.97756	1.27365	-1.30692	0.695992	-0.148416	0.953812	-0.358589	0.0531612	-0.0695903	0.251201	-0.202599	0	0	-0.336853	-0.124064	-0.0958418	0.329423	-0.128385	0	0	-0.304264	0.104142	-0.086239	0.668186	-0.494172	0.943096	1.86153	1.56585	0	0	0.530098	-0.387185	0.789674	1.7982	1.5708	0	0
20.97	2.9797	1.27323	-1.30771	0.696047	-0.148312	0.953833	-0.359896	0.0534702	-0.0702693	0.249995	-0.202696	0	0	-0.33736	-0.124262	-0.0954466	0.329312	-0.128535	0	0	-0.303722	0.103867	-0.0863985	0.665885	-0.495185	0.94514	1.86092	1.56502	0	0	0.52988	-0.387328	0.793458	1.79783	1.5708	0	0
20.98	2.9816	1.27285	-1.30865	0.696083	-0.148253	0.953822	-0.360867	0.053352	-0.0703857	0.249304	-0.20284	0	0	-0.337835	-0.124333	-0.0954435	0.329122	-0.128563	0	0	-0.303543	0.103368	-0.0863927	0.663889	-0.496308	0.947559	1.86065	1.56415	0	0	0.529217	-0.388154	0.796823	1.79806	1.5708	0	0
20.99	2.98358	1.27221	-1.30964	0.696126	-0.148198	0.953822	-0.362054	0.0535381	-0.0705876	0.248931	-0.202731	0	0	-0.338675	-0.124455	-0.0955171	0.328665	-0.128615	0	0	-0.304009	0.102617	-0.0867244	0.662018	-0.497353	0.950382	1.86055	1.56322	0	0	0.528202	-0.390115	0.800118	1.79919	1.5708	0	0
21	2.98598	1.27179	-1.31097	0.696169	-0.14813	0.953809	-0.363138	0.053142	-0.0708749	0.248358	-0.202684	0	0	-0.339222	-0.124395	-0.0953801	0.328544	-0.128774	0	0	-0.30426	0.101701	-0.0873586	0.660082	-0.498294	0.953397	1.86021	1.56224	0	0	0.526853	-0.39238	0.80353	1.80058	1.5708	0	0
